pose17.2
version=1
nRows=4
nColumns=213
inDegrees=yes
endheader
time	platform_rx	platform_ry	platform_rz	platform_ty	pelvis_tilt	pelvis_list	pelvis_rotation	pelvis_tx	pelvis_ty	pelvis_tz	hip_flexion_r	hip_adduction_r	hip_rotation_r	knee_angle_r	knee_angle_r_beta	ankle_angle_r	subtalar_angle_r	mtp_angle_r	hip_flexion_l	hip_adduction_l	hip_rotation_l	knee_angle_l	knee_angle_l_beta	ankle_angle_l	subtalar_angle_l	mtp_angle_l	lumbar_extension	lumbar_bending	lumbar_rotation	arm_flex_r	arm_add_r	arm_rot_r	elbow_flex_r	pro_sup_r	wrist_flex_r	wrist_dev_r	arm_flex_l	arm_add_l	arm_rot_l	elbow_flex_l	pro_sup_l	wrist_flex_l	wrist_dev_l	platform_rx_u	platform_ry_u	platform_rz_u	platform_ty_u	pelvis_tilt_u	pelvis_list_u	pelvis_rotation_u	pelvis_tx_u	pelvis_ty_u	pelvis_tz_u	hip_flexion_r_u	hip_adduction_r_u	hip_rotation_r_u	knee_angle_r_u	knee_angle_r_beta_u	ankle_angle_r_u	subtalar_angle_r_u	mtp_angle_r_u	hip_flexion_l_u	hip_adduction_l_u	hip_rotation_l_u	knee_angle_l_u	knee_angle_l_beta_u	ankle_angle_l_u	subtalar_angle_l_u	mtp_angle_l_u	lumbar_extension_u	lumbar_bending_u	lumbar_rotation_u	arm_flex_r_u	arm_add_r_u	arm_rot_r_u	elbow_flex_r_u	pro_sup_r_u	wrist_flex_r_u	wrist_dev_r_u	arm_flex_l_u	arm_add_l_u	arm_rot_l_u	elbow_flex_l_u	pro_sup_l_u	wrist_flex_l_u	wrist_dev_l_u	addbrev_r.activation	addlong_r.activation	addlong_r.fiber_length	addmagDist_r.activation	addmagIsch_r.activation	addmagIsch_r.fiber_length	addmagMid_r.activation	addmagProx_r.activation	bflh_r.activation	bflh_r.fiber_length	bfsh_r.activation	edl_r.activation	edl_r.fiber_length	ehl_r.activation	ehl_r.fiber_length	fdl_r.activation	fdl_r.fiber_length	fhl_r.activation	fhl_r.fiber_length	gaslat_r.activation	gaslat_r.fiber_length	gasmed_r.activation	gasmed_r.fiber_length	glmax1_r.activation	glmax2_r.activation	glmax3_r.activation	glmed1_r.activation	glmed2_r.activation	glmed3_r.activation	glmin1_r.activation	glmin2_r.activation	glmin3_r.activation	glmin3_r.fiber_length	grac_r.activation	iliacus_r.activation	perbrev_r.activation	perbrev_r.fiber_length	perlong_r.activation	perlong_r.fiber_length	piri_r.activation	piri_r.fiber_length	psoas_r.activation	recfem_r.activation	recfem_r.fiber_length	sart_r.activation	semimem_r.activation	semimem_r.fiber_length	semiten_r.activation	semiten_r.fiber_length	soleus_r.activation	soleus_r.fiber_length	tfl_r.activation	tfl_r.fiber_length	tibant_r.activation	tibant_r.fiber_length	tibpost_r.activation	tibpost_r.fiber_length	vasint_r.activation	vasint_r.fiber_length	vaslat_r.activation	vaslat_r.fiber_length	vasmed_r.activation	vasmed_r.fiber_length	addbrev_l.activation	addlong_l.activation	addlong_l.fiber_length	addmagDist_l.activation	addmagIsch_l.activation	addmagIsch_l.fiber_length	addmagMid_l.activation	addmagProx_l.activation	bflh_l.activation	bflh_l.fiber_length	bfsh_l.activation	edl_l.activation	edl_l.fiber_length	ehl_l.activation	ehl_l.fiber_length	fdl_l.activation	fdl_l.fiber_length	fhl_l.activation	fhl_l.fiber_length	gaslat_l.activation	gaslat_l.fiber_length	gasmed_l.activation	gasmed_l.fiber_length	glmax1_l.activation	glmax2_l.activation	glmax3_l.activation	glmed1_l.activation	glmed2_l.activation	glmed3_l.activation	glmin1_l.activation	glmin2_l.activation	glmin3_l.activation	glmin3_l.fiber_length	grac_l.activation	iliacus_l.activation	perbrev_l.activation	perbrev_l.fiber_length	perlong_l.activation	perlong_l.fiber_length	piri_l.activation	piri_l.fiber_length	psoas_l.activation	recfem_l.activation	recfem_l.fiber_length	sart_l.activation	semimem_l.activation	semimem_l.fiber_length	semiten_l.activation	semiten_l.fiber_length	soleus_l.activation	soleus_l.fiber_length	tfl_l.activation	tfl_l.fiber_length	tibant_l.activation	tibant_l.fiber_length	tibpost_l.activation	tibpost_l.fiber_length	vasint_l.activation	vasint_l.fiber_length	vaslat_l.activation	vaslat_l.fiber_length	vasmed_l.activation	vasmed_l.fiber_length
      0.00697989	     20.00000000	     -0.00000000	      0.00000000	      0.25000000	    -24.56432456	     -0.00240395	     -0.00332143	     -0.02285704	      0.64301875	      0.00001088	     87.22482528	    -18.10080592	     -4.87603068	     88.89513640	     88.89513640	     22.65042756	     -0.57732287	     -0.00000000	     87.22640228	    -18.11530227	     -4.84344415	     88.89729880	     88.89729880	     22.77430284	     -0.00000000	     -0.00000000	     -0.86503899	      0.00217076	      0.00333087	     89.17777525	     -0.00743702	     89.84109293	      0.16012660	      0.13398604	     -0.00000000	     -0.00000000	     89.17796441	     -0.00771857	     89.83190343	      0.16058767	      0.13819758	     -0.00000000	     -0.00000000	     -0.00000000	     -0.00000000	     -0.00000000	      0.00000000	    197.60230058	     -0.60913053	     -0.83007288	      0.04058829	      0.29249565	      0.00278657	   -218.67641704	    -10.79356643	      6.18380773	    -34.80364647	    -34.80364647	  -1050.38104976	   -151.51408421	      0.00000000	   -218.26315074	    -14.51150440	     14.61765384	    -34.28668684	    -34.28668684	  -1018.33179380	     -0.00000000	     -0.00000000	   -246.64781139	      0.53014098	      0.84168176	     50.99767256	     -2.11509225	     -0.00000000	      5.91974358	     -1.50119162	     -0.00000000	     -0.00000000	     51.05046916	     -2.19564446	     -1.11645612	      6.05111285	     -0.29320424	     -0.00000000	     -0.00000000	      0.01000000	      0.01000000	      0.09798584	      0.01000000	      0.01000000	      0.21463770	      0.01000000	      0.01000000	      0.01000000	      0.12187617	      0.01000000	      0.01000000	      0.05460462	      0.01000000	      0.06255482	      0.01000000	      0.04749213	      0.01000000	      0.05579628	      0.01000000	      0.05394291	      0.01000000	      0.04293155	      0.01000000	      0.01000000	      0.01000000	      0.01000000	      0.01000000	      0.01000000	      0.01000000	      0.01000000	      0.01000000	      0.04516659	      0.01000000	      0.01000000	      0.01000000	      0.05024768	      0.01000000	      0.05685651	      0.01000000	      0.03201077	      0.01000000	      0.01000000	      0.05447964	      0.01000000	      0.01000000	      0.07901672	      0.01000000	      0.23055419	      0.01000000	      0.05925994	      0.01000000	      0.02401564	      0.01000000	      0.04919019	      0.01000000	      0.04181195	      0.01000000	      0.13412055	      0.01000000	      0.13066641	      0.01000000	      0.12853780	      0.01000000	      0.01000000	      0.09800034	      0.01000000	      0.01000000	      0.21464431	      0.01000000	      0.01000000	      0.01000000	      0.12187719	      0.01000000	      0.01000000	      0.05465615	      0.01000000	      0.06250960	      0.01000000	      0.04744932	      0.01000000	      0.05574496	      0.01000000	      0.05394563	      0.01000000	      0.04293669	      0.01000000	      0.01000000	      0.01000000	      0.01000000	      0.01000000	      0.01000000	      0.01000000	      0.01000000	      0.01000000	      0.04514550	      0.01000000	      0.01000000	      0.01000000	      0.05046910	      0.01000000	      0.05702020	      0.01000000	      0.03199925	      0.01000000	      0.01000000	      0.05447844	      0.01000000	      0.01000000	      0.07901651	      0.01000000	      0.23055552	      0.01000000	      0.05927521	      0.01000000	      0.02401564	      0.01000000	      0.04903731	      0.01000000	      0.04175334	      0.01000000	      0.13412118	      0.01000000	      0.13066698	      0.01000000	      0.12853834
      0.00759346	     20.00000000	     -0.00000000	     -0.00000000	      0.25000000	    -24.43782095	     -0.00278804	     -0.00384317	     -0.02283109	      0.64320620	      0.00001264	     87.08462490	    -18.10771391	     -4.87217975	     88.87236727	     88.87236727	     21.98247519	     -0.67322377	     -0.00000000	     87.08646424	    -18.12455684	     -4.83426627	     88.87485128	     88.87485128	     22.12658971	     -0.00000000	     -0.00000000	     -1.02292648	      0.00250304	      0.00386098	     89.21041807	     -0.00879188	     89.84109293	      0.16391855	      0.13303072	     -0.00000000	     -0.00000000	     89.21064094	     -0.00912488	     89.83118669	      0.16446367	      0.13801743	     -0.00000000	     -0.00000000	     -0.00000000	     -0.00000000	     -0.00000000	      0.00000000	    214.74734476	     -0.64231722	     -0.86958333	      0.04398908	      0.31855203	      0.00294123	   -238.34372388	    -11.72296999	      6.35435386	    -39.46790729	    -39.46790729	  -1126.34387590	   -160.97211582	      0.00000000	   -237.90197538	    -15.65058144	     15.27689329	    -38.93762641	    -38.93762641	  -1092.45207247	     -0.00000000	     -0.00000000	   -267.99812835	      0.55228260	      0.88533601	     55.40391667	     -2.30136042	     -0.00000000	      6.44093852	     -1.61171015	     -0.00000000	     -0.00000000	     55.46101763	     -2.38851470	     -1.22020720	      6.58351141	     -0.29264853	     -0.00000000	     -0.00000000	      0.01000000	      0.01000000	      0.09797233	      0.01000000	      0.01000000	      0.21457783	      0.01000000	      0.01000000	      0.01000000	      0.12181253	      0.01000000	      0.01000000	      0.05496705	      0.01000000	      0.06297923	      0.01000000	      0.04748327	      0.01000000	      0.05574136	      0.01000000	      0.05383081	      0.01000000	      0.04283716	      0.01000000	      0.01000000	      0.01000000	      0.01000000	      0.01000000	      0.01000000	      0.01000000	      0.01000000	      0.01000000	      0.04513940	      0.01000000	      0.01000000	      0.01000000	      0.05016745	      0.01000000	      0.05676625	      0.01000000	      0.03198238	      0.01000000	      0.01000000	      0.05455215	      0.01000000	      0.01000000	      0.07896386	      0.01000000	      0.23046976	      0.01000000	      0.05902781	      0.01000000	      0.02401564	      0.01000000	      0.04967370	      0.01000000	      0.04179015	      0.01000000	      0.13411376	      0.01000000	      0.13066030	      0.01000000	      0.12853197	      0.01000000	      0.01000000	      0.09798949	      0.01000000	      0.01000000	      0.21458228	      0.01000000	      0.01000000	      0.01000000	      0.12181377	      0.01000000	      0.01000000	      0.05502841	      0.01000000	      0.06292439	      0.01000000	      0.04742887	      0.01000000	      0.05567753	      0.01000000	      0.05383353	      0.01000000	      0.04284230	      0.01000000	      0.01000000	      0.01000000	      0.01000000	      0.01000000	      0.01000000	      0.01000000	      0.01000000	      0.01000000	      0.04511460	      0.01000000	      0.01000000	      0.01000000	      0.05043139	      0.01000000	      0.05696548	      0.01000000	      0.03196870	      0.01000000	      0.01000000	      0.05455069	      0.01000000	      0.01000000	      0.07896362	      0.01000000	      0.23047135	      0.01000000	      0.05904608	      0.01000000	      0.02401564	      0.01000000	      0.04949390	      0.01000000	      0.04171573	      0.01000000	      0.13411449	      0.01000000	      0.13066096	      0.01000000	      0.12853260
      0.00820703	     20.00000000	     -0.00000000	     -0.00000000	      0.25000000	    -24.30080733	     -0.00319149	     -0.00438726	     -0.02280307	      0.64340968	      0.00001449	     86.93232162	    -18.11519076	     -4.86825144	     88.84663806	     88.84663806	     21.26893838	     -0.77471156	     -0.00000000	     86.93444056	    -18.13450258	     -4.82472521	     88.84944976	     88.84944976	     21.43436353	     -0.00000000	     -0.00000000	     -1.19389761	      0.00284766	      0.00441615	     89.24576092	     -0.01026124	     89.84109293	      0.16803088	      0.13200961	     -0.00000000	     -0.00000000	     89.24602013	     -0.01064971	     89.83040563	      0.16866690	      0.13784022	     -0.00000000	     -0.00000000	     -0.00000000	     -0.00000000	     -0.00000000	      0.00000000	    231.85812907	     -0.67220654	     -0.90289948	      0.04735327	      0.34471055	      0.00307971	   -258.12592935	    -12.64783574	      6.43499987	    -44.45347396	    -44.45347396	  -1198.93002241	   -169.71497732	      0.00000000	   -257.65641913	    -16.76436825	     15.79985443	    -43.91679267	    -43.91679267	  -1163.39022755	      0.00000000	     -0.00000000	   -289.29180047	      0.57036977	      0.92339560	     59.79796283	     -2.48829553	     -0.00000000	      6.96397619	     -1.71556061	     -0.00000000	     -0.00000000	     59.85928651	     -2.58193693	     -1.32609772	      7.11769563	     -0.28347618	     -0.00000000	     -0.00000000	      0.01000000	      0.01000000	      0.09795775	      0.01000000	      0.01000000	      0.21445424	      0.01000000	      0.01000000	      0.01000000	      0.12174285	      0.01000000	      0.01000000	      0.05535814	      0.01000000	      0.06343797	      0.01000000	      0.04747280	      0.01000000	      0.05567916	      0.01000000	      0.05371879	      0.01000000	      0.04274286	      0.01000000	      0.01000000	      0.01000000	      0.01000000	      0.01000000	      0.01000000	      0.01000000	      0.01000000	      0.01000000	      0.04510978	      0.01000000	      0.01000000	      0.01000000	      0.05008077	      0.01000000	      0.05666738	      0.01000000	      0.03195121	      0.01000000	      0.01000000	      0.05463213	      0.01000000	      0.01000000	      0.07890513	      0.01000000	      0.23037799	      0.01000000	      0.05877469	      0.01000000	      0.02401564	      0.01000000	      0.05019331	      0.01000000	      0.04176481	      0.01000000	      0.13410604	      0.01000000	      0.13065335	      0.01000000	      0.12852534	      0.01000000	      0.01000000	      0.09797774	      0.01000000	      0.01000000	      0.21446004	      0.01000000	      0.01000000	      0.01000000	      0.12174434	      0.01000000	      0.01000000	      0.05543037	      0.01000000	      0.06337194	      0.01000000	      0.04740482	      0.01000000	      0.05560186	      0.01000000	      0.05372151	      0.01000000	      0.04274799	      0.01000000	      0.01000000	      0.01000000	      0.01000000	      0.01000000	      0.01000000	      0.01000000	      0.01000000	      0.01000000	      0.04508106	      0.01000000	      0.01000000	      0.01000000	      0.05038980	      0.01000000	      0.05690450	      0.01000000	      0.03193522	      0.01000000	      0.01000000	      0.05463039	      0.01000000	      0.01000000	      0.07890487	      0.01000000	      0.23037988	      0.01000000	      0.05879632	      0.01000000	      0.02401564	      0.01000000	      0.04998481	      0.01000000	      0.04167283	      0.01000000	      0.13410688	      0.01000000	      0.13065411	      0.01000000	      0.12852607
      0.00888046	     20.00000000	     -0.00000000	     -0.00000000	      0.25000000	    -24.13834960	     -0.00365418	     -0.00500562	     -0.02276995	      0.64365153	      0.00001661	     86.75113428	    -18.12404782	     -4.86391811	     88.81475440	     88.81475440	     20.43588076	     -0.89198238	     -0.00000000	     86.75357951	    -18.14619493	     -4.81393788	     88.81792760	     88.81792760	     20.62578048	     -0.00000000	     -0.00000000	     -1.39657214	      0.00323719	      0.00505026	     89.28765154	     -0.01200632	     89.84109293	      0.17291473	      0.13081823	     -0.00000000	     -0.00000000	     89.28795357	     -0.01246018	     89.82947268	      0.17365834	      0.13765570	     -0.00000000	     -0.00000000	     -0.00000000	     -0.00000000	     -0.00000000	     -0.00000000	    250.62812835	     -0.70134590	     -0.93237919	      0.05101522	      0.37360015	      0.00321272	   -280.02118381	    -13.65499938	      6.41553288	    -50.30465467	    -50.30465467	  -1274.42505247	   -178.40387431	      0.00000000	   -279.52165454	    -17.95495844	     16.20808185	    -49.76916899	    -49.76916899	  -1237.32255986	     -0.00000000	     -0.00000000	   -312.63154735	      0.58577906	      0.95877424	     64.61273346	     -2.69468239	     -0.00000000	      7.54132411	     -1.82121890	     -0.00000000	     -0.00000000	     64.67852687	     -2.79520454	     -1.44525429	      7.70710346	     -0.26253655	     -0.00000000	     -0.00000000	      0.01000000	      0.01000000	      0.09794058	      0.01000000	      0.01000000	      0.21436283	      0.01000000	      0.01000000	      0.01000000	      0.12165948	      0.01000000	      0.01000000	      0.05582034	      0.01000000	      0.06397869	      0.01000000	      0.04745925	      0.01000000	      0.05560275	      0.01000000	      0.05359594	      0.01000000	      0.04263943	      0.01000000	      0.01000000	      0.01000000	      0.01000000	      0.01000000	      0.01000000	      0.01000000	      0.01000000	      0.01000000	      0.04507449	      0.01000000	      0.01000000	      0.01000000	      0.04997852	      0.01000000	      0.05654945	      0.01000000	      0.03191380	      0.01000000	      0.01000000	      0.05472828	      0.01000000	      0.01000000	      0.07883413	      0.01000000	      0.23026890	      0.01000000	      0.05847193	      0.01000000	      0.02401564	      0.01000000	      0.05080356	      0.01000000	      0.04173278	      0.01000000	      0.13409642	      0.01000000	      0.13064469	      0.01000000	      0.12851709	      0.01000000	      0.01000000	      0.09796386	      0.01000000	      0.01000000	      0.21436712	      0.01000000	      0.01000000	      0.01000000	      0.12166126	      0.01000000	      0.01000000	      0.05590584	      0.01000000	      0.06389971	      0.01000000	      0.04737395	      0.01000000	      0.05550967	      0.01000000	      0.05359866	      0.01000000	      0.04264456	      0.01000000	      0.01000000	      0.01000000	      0.01000000	      0.01000000	      0.01000000	      0.01000000	      0.01000000	      0.01000000	      0.04504124	      0.01000000	      0.01000000	      0.01000000	      0.05033977	      0.01000000	      0.05683066	      0.01000000	      0.03189515	      0.01000000	      0.01000000	      0.05472622	      0.01000000	      0.01000000	      0.07883386	      0.01000000	      0.23027113	      0.01000000	      0.05849771	      0.01000000	      0.02401564	      0.01000000	      0.05056170	      0.01000000	      0.04161973	      0.01000000	      0.13409738	      0.01000000	      0.13064555	      0.01000000	      0.12851791
